<svg width="181" height="181" viewBox="0 0 181 181" fill="none" xmlns="http://www.w3.org/2000/svg">
<path d="M9.0292 52.8885C9.19563 52.2658 9.40368 51.6016 9.57012 50.9789C11.2761 45.0424 16.5605 40.891 22.7602 40.808C25.9641 40.7665 29.2097 40.7665 32.4136 40.808C39.2375 40.8495 44.6467 45.0424 46.3526 51.6846C47.0184 54.217 47.6009 56.7908 48.2667 59.4062C88.2947 59.4062 128.281 59.4062 168.434 59.4062C168.226 60.1119 168.101 60.6516 167.935 61.2328C161.152 84.9371 154.329 108.642 147.588 132.387C147.213 133.674 146.714 134.048 145.383 134.048C117.504 134.006 89.6262 134.006 61.748 134.006C60.9575 134.006 60.1669 134.006 59.4595 134.214C57.2126 134.837 55.7979 136.954 56.0476 139.154C56.2972 141.354 58.128 143.139 60.4166 143.306C60.9159 143.347 61.4568 143.306 61.9561 143.306C86.2975 143.306 110.639 143.306 134.98 143.306C142.886 143.306 149.211 149.117 149.377 156.631C149.543 162.485 147.005 167.01 141.763 169.667C136.52 172.365 131.319 171.784 126.742 168.172C122.123 164.519 120.583 159.62 121.832 153.892C121.915 153.559 121.998 153.186 122.123 152.729C112.303 152.729 102.608 152.729 92.7885 152.729C94.4945 159.869 92.6221 165.723 86.131 169.459C81.2628 172.282 76.228 171.908 71.5678 168.836C66.4083 165.432 64.8687 160.783 65.9922 152.646C64.4943 152.646 62.9963 152.646 61.54 152.646C54.3832 152.646 48.8492 148.578 47.1432 142.143C45.4789 135.792 48.2667 129.689 54.5497 126.119C54.6745 126.036 54.7993 125.911 55.0074 125.745C53.7591 120.68 52.5108 115.574 51.2625 110.468C46.852 92.5757 42.4414 74.7248 37.9892 56.8323C37.7395 55.7945 37.4899 54.7151 37.1986 53.6773C36.6161 51.5186 34.9101 50.1071 32.6632 50.1071C29.4593 50.0656 26.2138 50.0656 23.0099 50.1071C20.4717 50.1486 19.0986 51.4771 18.1416 54.7566C15.1041 54.7566 12.0667 54.7566 8.98759 54.7566C9.0292 54.1339 9.0292 53.5112 9.0292 52.8885ZM50.7216 68.7883C50.8048 69.2449 50.8048 69.6186 50.888 69.9507C55.257 87.6771 59.6676 105.362 63.9949 123.088C64.2862 124.375 64.8271 124.666 66.0754 124.666C90.2087 124.624 114.342 124.624 138.475 124.624C138.975 124.624 139.516 124.624 140.098 124.624C145.466 105.985 150.792 87.428 156.118 68.7468C120.916 68.7883 85.923 68.7883 50.7216 68.7883ZM79.3487 161.945C81.8869 161.987 84.009 159.869 84.0506 157.379C84.0922 154.888 82.0117 152.729 79.5152 152.646C76.9354 152.563 74.7301 154.722 74.7301 157.296C74.7301 159.786 76.8522 161.945 79.3487 161.945ZM135.521 161.945C138.059 161.904 140.14 159.745 140.098 157.254C140.098 154.722 137.934 152.646 135.438 152.646C132.858 152.646 130.694 154.846 130.778 157.42C130.861 159.911 133.025 161.987 135.521 161.945Z" fill="#D9D9D9"/>
<path d="M107.435 12.1635C107.435 18.3076 107.435 24.4516 107.435 30.6787C104.314 30.6787 101.318 30.6787 98.0729 30.6787C98.0729 24.4931 98.0729 18.3076 98.0729 12.1635C101.194 12.1635 104.314 12.1635 107.435 12.1635Z" fill="#D9D9D9"/>
<path d="M76.3113 43.3404C72.0671 39.106 67.6981 34.747 63.454 30.5126C65.4929 28.4784 67.6565 26.3197 69.737 24.244C73.9811 28.52 78.3085 32.8374 82.5526 37.1133C80.5138 39.1475 78.3917 41.2647 76.3113 43.3404Z" fill="#D9D9D9"/>
<path d="M135.979 24.3686C137.851 26.2367 139.932 28.3539 141.887 30.3466C137.643 34.581 133.274 38.9399 128.989 43.2158C127.116 41.3477 124.994 39.2305 122.955 37.1963C127.241 33.0034 131.61 28.7275 135.979 24.3686Z" fill="#D9D9D9"/>
</svg>
